# xmcd
# 
# Track frame offsets:
#     150
#     17163
#     34369
#     52106
#     70106
#     87504
#     102599
#     119544
#     136526
#     140343
#     168158
#     186025
#     199646
#     220618
#     237951
# 
# Disc length: 3458
# 
# Revision: 2
# Processed by: cddbd v1.5.2PL0 Copyright (c) Steve Scherf et al.
# Submitted via: fre:ac v1.0.31
# 
DISCID=d30d800f
DTITLE=Poison (Ivy) - POISON IVY 1ST ALBUM
DYEAR=2005
DGENRE=Ballad
TTITLE0=오늘밤
TTITLE1=Dawn Dawn Dawn
TTITLE2=Poison Ivy
TTITLE3=난
TTITLE4=바본가봐
TTITLE5=Do It
TTITLE6=A-Ha
TTITLE7=날 가지려면
TTITLE8=기도...(Intro)
TTITLE9=기도
TTITLE10=고백
TTITLE11=One Step
TTITLE12=낡은자전거
TTITLE13=델마와 루이스 (Feat. Bobby Kim)
TTITLE14=다줄께
EXTD=
EXTT0=
EXTT1=
EXTT2=
EXTT3=
EXTT4=
EXTT5=
EXTT6=
EXTT7=
EXTT8=
EXTT9=
EXTT10=
EXTT11=
EXTT12=
EXTT13=
EXTT14=
PLAYORDER=
